<svg xmlns="http://www.w3.org/2000/svg" width="16" height="16" viewBox="0 0 534 660">
  <path id="logo1" d="m 233.59171,598.91948 c -4.89956,-0.4965 -9.16108,-1.15552 -9.47006,-1.46449 -0.8368,-0.83681 -0.3488,-28.30851 0.73175,-41.19297 0.79144,-9.43714 1.38375,-11.99096 3.69622,-15.9369 4.52913,-7.72839 10.21141,-13.09776 17.86303,-16.8794 20.22607,-9.99626 43.86068,-2.04065 54.98156,18.50727 l 2.89421,5.3476 -0.71004,24.0997 c -0.39052,13.25484 -1.01792,24.40004 -1.39421,24.76712 -0.65649,0.64041 -27.18878,2.39183 -49.18417,3.2467 -5.775,0.22445 -14.50873,0.002 -19.40829,-0.49463 z M 484.60805,497.93027 c -3.61216,-4.46239 -9.08265,-8.88685 -21.70732,-17.5566 -14.74246,-10.12411 -17.25316,-12.24621 -19.84181,-16.77069 -3.32479,-5.81112 -9.72248,-12.85503 -48.49788,-53.39661 -14.88357,-15.5615 -30.05865,-31.79778 -33.7224,-36.08062 -3.66375,-4.28284 -15.13875,-15.97143 -25.5,-25.97464 -10.36125,-10.00322 -20.95487,-20.99194 -23.54136,-24.41939 l -4.70273,-6.23172 6.57122,-6.64451 c 3.61417,-3.65448 6.4054,-7.10495 6.20273,-7.66771 -0.4971,-1.38027 -17.60606,-14.51667 -21.3685,-16.40691 -1.65,-0.82895 -8.0625,-3.18097 -14.25,-5.22671 -6.1875,-2.04573 -11.25,-3.85251 -11.25,-4.01506 0,-0.16255 2.39375,-1.94418 5.31944,-3.95918 l 5.31944,-3.66364 4.50975,1.9331 c 2.48036,1.06321 9.64912,3.80497 15.93056,6.09279 6.28145,2.28782 12.77081,4.7789 14.42081,5.53573 1.65,0.75683 6.15,2.52113 10,3.92066 l 7,2.54462 8.51978,-8.47159 c 4.68588,-4.65938 8.80495,-8.47159 9.1535,-8.47159 0.67778,0 34.7073,36.62277 62.18643,66.92541 9.18973,10.13397 18.22791,20.93397 20.08486,24 3.12685,5.16277 40.58109,97.28278 42.16607,103.70893 0.38875,1.57611 3.33642,10.25212 6.55039,19.28002 3.21397,9.0279 5.71592,16.54203 5.55988,16.69806 -0.15603,0.15603 -2.45682,-2.40094 -5.11286,-5.68215 z M 47.448863,489.24505 c 1.102982,-5.28551 3.859609,-12.52465 12.7591,-33.50651 3.214809,-7.57939 4.884214,-9.48573 71.162527,-81.26249 37.32877,-40.42557 69.22284,-74.63896 70.87571,-76.02976 2.78057,-2.3397 3.13791,-2.40865 4.78023,-0.92237 1.34174,1.21425 1.95856,1.30939 2.52694,0.38973 0.55114,-0.89176 1.11062,-0.72607 2.09528,0.62053 1.2943,1.77006 1.55351,1.75049 7.09736,-0.5357 3.16469,-1.30508 7.77899,-3.56054 10.25399,-5.01213 9.13682,-5.35879 28.12228,-15.1974 28.53323,-14.78645 0.23335,0.23334 2.23328,3.22316 4.4443,6.64403 3.53148,5.4639 3.8075,6.29437 2.27125,6.83356 -0.96183,0.33758 -6.73449,2.97391 -12.82814,5.85852 l -11.07936,5.24475 -1.46769,13.73161 -1.46769,13.73161 3.29705,4.31802 c 1.81338,2.37491 3.29705,4.57248 3.29705,4.88348 0,0.31101 -5.63889,8.3187 -12.53087,17.79488 -11.63616,15.99921 -35.44805,43.03264 -37.42676,42.49026 -0.46273,-0.12684 -13.70052,12.28476 -29.41731,27.58134 l -28.57598,27.81197 -9.4571,4.25962 c -5.20141,2.34279 -10.04995,4.71481 -10.77454,5.27115 -1.28213,0.98442 -8.56825,4.07012 -46.777035,19.81025 -10.152778,4.18244 -19.188211,8.26383 -20.078741,9.06974 -2.592165,2.34588 -2.783994,1.80194 -1.512801,-4.28964 z M 251.8904,261.08092 c -1.12948,-2.51951 -2.91311,-6.83092 -3.96364,-9.58092 -1.87408,-4.90587 -7.69354,-10.35473 -10.41421,-9.75099 -0.61717,0.13695 -2.64825,-1.32555 -4.51351,-3.25 L 229.60767,235 l -19.02239,0 -19.02239,0 -5.22947,5.16451 -5.22947,5.16451 -15.15948,-14.38171 c -8.33772,-7.90994 -19.79483,-19.79647 -25.46026,-26.41451 -5.66542,-6.61804 -15.1011,-16.7578 -20.96818,-22.5328 -7.23841,-7.12482 -11.60853,-12.34135 -13.59519,-16.22835 -1.61027,-3.1506 -5.58699,-8.81804 -8.837139,-12.59433 -5.617394,-6.52674 -6.035944,-7.39123 -8.471269,-17.49686 -1.409047,-5.84699 -4.092188,-13.90454 -5.962536,-17.90567 -1.870348,-4.00114 -3.675273,-9.11374 -4.010945,-11.36133 C 78.236734,103.72028 72.516981,92.638934 61.863729,73.913455 47.092883,47.950382 40.435307,35.231359 41.210449,34.456218 41.372795,34.293871 62.682778,51.337308 88.565965,72.330521 124.63496,101.58519 144.01966,118.20743 171.56315,143.5 c 34.44128,31.62665 36.52594,33.7491 50.09201,51 7.78533,9.9 17.29793,21.15 21.13909,25 3.84117,3.85 7.28917,8.0125 7.66223,9.25 0.37306,1.2375 1.30885,2.25 2.07952,2.25 0.77159,0 1.16638,0.61201 0.87858,1.36199 -0.28745,0.7491 0.67945,5.5866 2.14867,10.75 3.63648,12.77996 5.35866,20.20535 4.86972,20.99647 -0.22467,0.36352 -1.7766,0.86174 -3.44873,1.10716 -2.79352,0.41 -3.20689,0.0745 -5.09384,-4.1347 z m 15.37271,0.53116 c -1.78029,-1.16164 -3.24279,-2.40883 -3.25,-2.77152 -0.007,-0.36269 3.4893,-5.53769 7.77002,-11.5 4.28072,-5.96231 9.45572,-14.37477 11.5,-18.69435 L 287,220.79242 l 0,-13.72014 c 0,-13.51055 -0.0542,-13.8452 -3.54813,-21.90772 l -3.54814,-8.1876 6.79814,-8.829 c 5.84101,-7.58594 8.9804,-10.42636 22.29813,-20.17456 15.91581,-11.64993 47.21975,-34.84189 63.90296,-47.3434 5.17163,-3.875339 10.79663,-7.789531 12.5,-8.6982 C 387.10633,91.023131 399.75,86.109581 413.5,81.012801 427.25,75.91602 448.54012,67.9498 460.81137,63.310088 473.08263,58.670376 483.52444,55.015042 484.01539,55.187124 484.50635,55.359206 475.18532,69.45 463.30198,86.5 l -21.60606,31 -53.95717,48.5 c -29.67644,26.675 -55.16564,49.18139 -56.64267,50.01419 -9.9422,5.60581 -23.51998,15.15574 -28.66036,20.15826 -5.96008,5.80023 -6.11238,5.8767 -8.86272,4.4498 l -2.79844,-1.45185 -6.63728,8.23327 c -3.6505,4.5283 -7.76228,9.88292 -9.13728,11.89914 -3.19089,4.67895 -3.81824,4.8662 -7.73689,2.30927 z"/>
  <path id="logo2" d="m 257.65257,607.30048 c -24.96532,-0.51836 -38.08611,-1.28452 -55.86444,-3.2621 -12.7796,-1.42156 -24.24395,-2.58883 -25.47633,-2.59395 -1.5637,-0.006 -2.68326,-0.98019 -3.70553,-3.22274 -0.80566,-1.7674 -4.54652,-19.64188 -8.31302,-39.72108 l -6.84819,-36.50764 4.50069,-12.43553 c 2.47537,-6.83955 6.92707,-17.66751 9.89266,-24.06213 4.80397,-10.35868 6.31156,-15.4265 13.82438,-46.4713 4.63781,-19.16459 8.49479,-35.48114 8.57105,-36.25901 0.0763,-0.77786 5.80718,-7.26574 12.73537,-14.41752 8.39016,-8.66093 16.76515,-18.75452 25.07929,-30.22573 6.86542,-9.47239 12.71184,-17.80524 12.99206,-18.51748 0.28022,-0.71223 -0.57167,-2.49198 -1.89308,-3.95501 -4.93371,-5.4624 -4.87837,-5.23439 -3.79507,-15.637 0.55925,-5.37037 1.24824,-11.17431 1.53107,-12.89765 0.5814,-3.54248 2.99383,-5.25511 14.52847,-10.31399 12.56976,-5.51286 12.15056,-4.72303 7.02907,-13.24395 -3.45992,-5.75646 -4.75673,-7.1709 -6.07667,-6.62786 -2.36572,0.97328 -18.39523,9.73785 -25.04803,13.69569 -8.44742,5.02549 -16.73467,8.58808 -17.70959,7.61315 -0.49192,-0.49192 0.99037,-4.97883 3.4456,-10.42987 2.36991,-5.2616 4.05773,-9.81775 3.75071,-10.12477 -0.30702,-0.30702 -0.0129,-0.55821 0.65368,-0.55821 0.66654,0 0.96572,-0.39832 0.66484,-0.88515 -0.30088,-0.48683 0.146,-1.15109 0.99307,-1.47614 0.84706,-0.32505 1.32613,-0.93723 1.0646,-1.36041 -0.26154,-0.42317 1.27521,-4.09705 3.41499,-8.16417 2.13978,-4.06713 5.48953,-10.62058 7.44388,-14.56322 1.95436,-3.94265 3.9241,-7.16845 4.37721,-7.16845 2.41052,0 6.27777,5.49546 9.74122,13.84252 4.16559,10.03923 4.05062,9.94985 10.77639,8.37749 2.11078,-0.49346 2.23005,-0.87991 1.60393,-5.19686 -0.37203,-2.56507 -1.02918,-5.34717 -1.46032,-6.18245 -1.90987,-3.70011 -6.01311,-20.08156 -5.52108,-22.04196 0.69569,-2.77182 5.47833,-5.60751 9.45756,-5.60751 2.99035,0 14.18122,4.96206 15.31002,6.7885 0.30601,0.49513 -3.42825,6.37336 -8.29835,13.06274 -9.62175,13.21606 -9.57454,12.96877 -3.22535,16.89278 l 3.49757,2.16162 1.58222,-2.04183 c 8.20914,-10.59379 18.37472,-23.01836 18.82326,-23.00615 1.63028,0.0444 3.08207,2.25551 6.48195,9.87237 2.06326,4.62241 6.16887,13.24818 9.12358,19.16838 4.08255,8.18002 4.93858,10.59522 3.56595,10.06094 -0.99344,-0.38668 -7.63429,-2.92204 -14.75746,-5.63414 l -12.95121,-4.93109 -5.55017,3.76891 c -3.0526,2.07289 -5.5663,4.21384 -5.58601,4.75765 -0.0197,0.54381 2.29925,1.72741 5.15325,2.63021 16.2093,5.12749 23.31076,8.50018 31.71404,15.06193 4.70041,3.67035 8.82927,7.13137 9.17524,7.69116 0.34596,0.55979 -2.09456,3.76582 -5.42339,7.1245 -3.32883,3.35868 -6.05241,6.67458 -6.05241,7.36866 0,2.21574 10.37785,15.38654 15.50833,19.68202 3.80147,3.18278 4.9718,4.82407 5.03543,7.06187 0.0456,1.60346 1.50347,14.18859 3.23976,27.96695 2.90196,23.02874 3.90938,28.0056 12.47634,61.63536 10.17564,39.94468 14.99052,53.55887 26.22654,74.15633 l 5.93307,10.87626 -7.60651,39.55004 c -4.18358,21.75252 -7.89835,39.83823 -8.25502,40.19046 -0.35668,0.35224 -10.57363,2.68817 -22.70433,5.19094 -24.73516,5.10331 -17.26749,4.77213 -78.79678,3.49462 z m 24.41574,-8.18957 c 11.25341,-0.65424 20.7716,-1.50037 21.15154,-1.88031 0.37994,-0.37995 1.08478,-11.47929 1.56631,-24.66521 l 0.87551,-23.97442 -3.17688,-6.45389 c -4.32312,-8.78251 -11.78829,-16.03177 -21.02775,-20.41957 -7.27608,-3.45539 -7.58155,-3.50912 -18.07469,-3.17894 -8.98099,0.28259 -11.53589,0.74133 -16.11167,2.89292 -7.37261,3.46667 -15.82541,11.44052 -19.56466,18.45607 -2.82623,5.30254 -3.17334,6.99763 -4.11072,20.07426 -1.15485,16.11028 -1.34248,31.82069 -0.43427,36.36176 0.59079,2.95393 0.79175,3.05612 6.67407,3.39371 13.15716,0.75508 32.72141,0.52796 52.23321,-0.60638 z"/>
</svg>
