<svg xmlns="http://www.w3.org/2000/svg"
           xmlns:xlink="http://www.w3.org/1999/xlink"
           display="none"
           width="0"
           height="0"><defs>
<symbol id="attention" viewBox="0 0 1000 1000"><path d="M571 767V661q0-8-5-13t-12-5H446q-7 0-12 5t-5 13v106q0 8 5 13t12 6h108q7 0 12-6t5-13zm-1-208l10-257q0-6-5-10-7-6-14-6H439q-6 0-14 6-5 4-5 12l9 255q0 5 6 9t13 3h103q8 0 14-3t5-9zm-7-522l428 786q20 35-1 70-9 17-26 26t-35 10H71q-18 0-35-10t-26-26q-21-35-1-70L438 37q9-17 26-27t36-10 36 10 27 27z"/></symbol>
<symbol id="block" viewBox="0 0 857.1 1000"><path d="M732 498q0-90-48-164L263 754q76 50 166 50 62 0 118-25t96-65 65-97 24-119zM175 665l421-421q-75-50-167-50-83 0-153 40T166 345t-41 153q0 91 50 167zm682-167q0 88-34 168t-91 137-137 92-166 34-167-34-137-92-91-137T0 498t34-167 91-137 137-91 167-34 166 34 137 91 91 137 34 167z"/></symbol>
<symbol id="clock" viewBox="0 0 857.1 1000"><path d="M500 304v250q0 7-5 12t-13 5H304q-8 0-13-5t-5-12v-36q0-8 5-13t13-5h125V304q0-8 5-13t12-5h36q8 0 13 5t5 13zm232 196q0-83-41-152T581 237t-152-41-153 41-110 111-41 152 41 152 110 111 153 41 152-41 110-111 41-152zm125 0q0 117-57 215T644 871t-215 58-216-58T58 715 0 500t58-215 155-156 216-58 215 58 156 156 57 215z"/></symbol>
<symbol id="comment" viewBox="0 0 1000 1000"><path d="M1000 500q0 97-67 179T751 809t-251 48q-39 0-81-4-110 97-257 135-27 8-63 12-10 1-17-5t-10-16v-1q-2-2 0-6t1-6 2-5l4-5 4-5 4-5q4-5 17-19t20-22 17-22 18-28 15-33 15-42q-88-50-138-123T0 500q0-73 40-139t106-114 160-76 194-28q136 0 251 48t182 130 67 179z"/></symbol>
<symbol id="down" viewBox="0 0 928 1000"><path d="M911 499L464 947 18 499l158-158 177 176V53h223v464l176-175z"/></symbol>
<symbol id="ellipsis-vert" viewBox="0 0 214.3 1000"><path d="M214 696v108q0 22-15 37t-38 16H54q-23 0-38-16T0 804V696q0-22 16-38t38-15h107q22 0 38 15t15 38zm0-285v107q0 22-15 38t-38 15H54q-23 0-38-15T0 518V411q0-23 16-38t38-16h107q22 0 38 16t15 38zm0-286v107q0 22-15 38t-38 16H54q-23 0-38-16T0 232V125q0-22 16-38t38-16h107q22 0 38 16t15 38z"/></symbol>
<symbol id="envelope-open-o" viewBox="0 0 1000 1000"><path d="M823 509l21 29q5 6 4 13t-6 11q-24 19-71 55t-82 63-37 29q-22 18-34 27t-33 23-43 20-41 7h-2q-20 0-41-7t-42-20-34-23-34-27q-3-2-36-28t-80-62-68-53q-7-4-7-11t3-13l21-29q4-6 12-7t14 3q52 41 170 132 3 2 25 20t33 26 32 18 32 9h2q13 0 32-9t32-18 34-26 24-20q144-110 174-135 7-4 14-4t12 7zm106 402V393q-51-47-89-78-51-41-217-169-2-2-24-20t-34-27-31-18-33-10h-2q-13 0-32 10t-32 18-34 27-24 20q-120 92-176 137t-72 58-46 41q-8 7-12 11v518q0 7 6 12t12 6h822q7 0 12-6t6-12zm71-518v518q0 37-26 63t-63 26H89q-36 0-63-26T0 911V393q0-31 23-53 69-63 195-162T348 77q20-17 33-27t35-23 42-20 41-7h2q20 0 41 7t43 20 34 23 33 27q24 20 87 68t126 99 112 96q23 22 23 53z"/></symbol>
<symbol id="envelope-open" viewBox="0 0 1000 1000"><path d="M1000 365v546q0 37-26 63t-63 26H89q-36 0-63-26T0 911V365q0-8 6-13 5-4 22-20t23-20 26-21 39-31 53-40 80-60 108-79q2-2 29-22t40-29 36-20 38-10 39 10 36 20 39 29 29 22q62 45 108 79t80 60 54 40 39 31 25 21 23 20 22 20q6 5 6 13zM685 691q147-106 193-140 6-5 7-12t-4-13l-21-29q-4-6-12-7t-13 4q-129 94-192 139-2 2-29 22t-39 29-36 20-39 10-38-10-36-20-40-29-29-22q-104-74-192-139-6-5-13-4t-12 7l-21 29q-5 6-4 13t7 12q46 34 193 140 5 5 28 22t36 26 36 22 43 19 42 6 42-6 44-20 36-22 37-26 26-21z"/></symbol>
<symbol id="envelope" viewBox="0 0 1000 1000"><path d="M1000 396v443q0 37-26 63t-63 27H89q-36 0-63-27T0 839V396q25 27 56 49 202 137 278 192 32 24 51 37t53 27 61 13h2q28 0 61-13t53-27 51-37q95-68 278-192 32-22 56-49zm0-164q0 44-27 84t-68 69Q695 531 643 566q-5 4-23 17t-30 22-29 18-32 15-28 5h-2q-12 0-27-5t-32-15-30-18-30-22-23-17q-51-35-147-101T96 385q-35-23-65-64T0 244q0-43 23-72t66-29h822q36 0 63 26t26 63z"/></symbol>
<symbol id="filter" viewBox="0 0 785.7 1000"><path d="M783 165q9 22-8 39L500 479v414q0 23-22 33-7 3-14 3-15 0-25-11L296 775q-10-11-10-25V479L11 204q-18-17-8-39 9-22 33-22h714q23 0 33 22z"/></symbol>
<symbol id="forward" viewBox="0 0 1000 1000"><path d="M1000 357q0 15-11 25L704 668q-11 11-25 11t-25-11-11-25V500H518q-55 0-98 3t-86 12-74 24-59 39-45 56-27 77-10 101q0 31 3 69 0 4 2 13t1 15q0 8-5 14t-13 6q-9 0-15-10-4-5-8-12t-7-17-6-13Q0 718 0 625q0-111 30-186 90-225 488-225h125V71q0-14 11-25t25-10 25 10l285 286q11 11 11 25z"/></symbol>
<symbol id="hammer" viewBox="0 0 1000 1000"><path d="M988 857q0 30-20 50l-60 61q-22 20-51 20t-50-20L604 764q-21-20-21-50 0-29 24-53L464 518l-70 70q-8 8-19 8t-19-8l7 7 7 7 6 6q5 5 5 8t4 8 3 9 0 10q0 21-15 38-2 1-9 10t-11 11-10 9-13 9-12 5-14 3q-23 0-38-16L38 484q-16-15-16-38 0-7 3-14t5-12 9-13 9-10 11-11 10-9q17-15 38-15h10q4 0 9 3t8 4 8 5 6 6 7 7 7 7q-8-8-8-19t8-19l194-194q8-8 19-8t19 8l-7-7-7-7q-1-1-6-7t-5-7-3-8-4-9 0-10q0-21 15-38 2-2 9-10t11-11 10-10 13-8 12-5 14-3q23 0 38 16l228 228q16 15 16 38 0 7-3 14t-5 12-8 13-10 10-11 11-10 9q-17 15-38 15h-10q-4 0-9-4t-8-3-7-5-7-6-7-7-7-7q8 8 8 19t-8 19l-70 70 143 143q24-24 53-24t51 21l203 202q20 22 20 51z"/></symbol>
<symbol id="hashtag" viewBox="0 0 1000 1000"><path d="M553 571l36-142H447l-36 142h142zm429-281l-32 125q-4 14-17 14H751l-36 142h173q9 0 14 7 6 8 4 16l-32 125q-2 13-17 13H675l-45 183q-4 14-18 14H487q-9 0-14-7t-4-16l44-174H371l-45 183q-4 14-17 14H183q-8 0-14-7-5-7-3-16l43-174H36q-9 0-14-7-5-6-4-15l32-125q4-14 17-14h182l36-142H112q-9 0-14-7-6-8-4-16l32-125q2-13 17-13h182l46-183q3-14 17-14h125q9 0 14 7t4 16l-44 174h142l45-183q4-14 18-14h125q8 0 14 7 5 7 3 16l-43 174h173q9 0 14 7 5 6 4 15z"/></symbol>
<symbol id="home" viewBox="0 0 928.6 1000"><path d="M786 554v267q0 15-11 25t-25 11H536V643H393v214H179q-15 0-25-11t-11-25V554v-2-2l321-264 321 264q1 1 1 4zm124-39l-34 41q-5 5-12 6h-2q-7 0-12-3L464 237 78 559q-7 4-13 3-7-1-12-6l-35-41q-4-6-3-13t6-12l401-334q18-15 42-15t43 15l136 113V161q0-8 5-13t13-5h107q8 0 13 5t5 13v227l122 102q6 4 6 12t-4 13z"/></symbol>
<symbol id="link" viewBox="0 0 928.6 1000"><path d="M813 679q0-23-16-38L681 525q-16-16-38-16-24 0-40 18l10 10 12 12q3 3 9 11t7 14 2 15q0 23-16 38t-38 16q-8 0-15-2t-14-7-11-9-12-12-10-10q-19 17-19 40t16 38l115 116q15 15 38 15 22 0 38-15l82-81q16-16 16-37zM420 285q0-22-15-38L290 132q-16-16-38-16t-38 15l-82 82q-16 15-16 37t16 38l116 116q15 15 38 15t40-17l-11-11-12-12q-3-3-8-10t-7-14-2-16q0-22 15-38t38-15q9 0 16 2t14 7 11 8 12 12 10 11q18-17 18-41zm500 394q0 66-48 113l-82 81q-46 47-113 47-68 0-114-48L448 757q-46-47-46-114 0-68 49-116l-49-49q-48 49-116 49-67 0-114-47L56 364Q9 317 9 250t47-113l82-82Q185 9 252 9t114 47l115 116q46 46 46 113 0 69-49 117l49 49q48-49 116-49 67 0 114 47l116 116q47 47 47 114z"/></symbol>
<symbol id="lock-open" viewBox="0 0 928.6 1000"><path d="M929 321v143q0 15-11 25t-25 11h-36q-14 0-25-11t-11-25V321q0-59-41-101t-101-41-101 41-42 101v108h53q23 0 38 15t16 38v322q0 22-16 37t-38 16H54q-23 0-38-16T0 804V482q0-22 16-38t38-15h375V321q0-103 73-176t177-74 176 74 74 176z"/></symbol>
<symbol id="lock" viewBox="0 0 642.9 1000"><path d="M179 429h285V321q0-59-42-101t-101-41-101 41-41 101v108zm464 53v322q0 22-16 37t-38 16H54q-23 0-38-16T0 804V482q0-22 16-38t38-15h17V321q0-102 74-176t176-74 177 74 73 176v108h18q23 0 38 15t16 38z"/></symbol>
<symbol id="logout" viewBox="0 0 928.6 1000"><path d="M357 804q0 2 1 11t0 14-2 14-5 11-12 3H161q-67 0-114-47T0 696V304q0-67 47-114t114-47h178q8 0 13 5t5 13q0 2 1 11t0 15-2 13-5 11-12 3H161q-37 0-63 26t-27 64v392q0 37 27 63t63 27h180l7 2 4 3 4 5 1 8zm518-304q0 14-11 25L561 829q-11 10-25 10t-25-10-11-25V643H250q-14 0-25-11t-11-25V393q0-15 11-25t25-11h250V196q0-14 11-25t25-10 25 10l303 304q11 10 11 25z"/></symbol>
<symbol id="mail" viewBox="0 0 1000 1000"><path d="M929 839V411q-18 20-39 36-149 115-238 189-28 24-46 37t-48 28-57 13h-2q-26 0-57-13t-48-28-46-37q-88-74-238-189-21-16-39-36v428q0 7 6 13t12 5h822q7 0 12-5t6-13zm0-586v-14l-1-7-1-7-3-5-5-4-8-2H89q-7 0-12 6t-6 12q0 94 83 159 107 84 223 176 4 3 20 17t25 21 25 17 28 16 24 5h2q11 0 24-5t28-16 25-17 25-21 20-17q116-92 224-176 30-24 56-65t26-73zm71-21v607q0 37-26 63t-63 27H89q-36 0-63-27T0 839V232q0-37 26-63t63-26h822q37 0 63 26t26 63z"/></symbol>
<symbol id="menu" viewBox="0 0 857.1 1000"><path d="M857 750v71q0 15-10 25t-26 11H36q-15 0-25-11T0 821v-71q0-15 11-25t25-11h785q15 0 26 11t10 25zm0-286v72q0 14-10 25t-26 10H36q-15 0-25-10T0 536v-72q0-14 11-25t25-10h785q15 0 26 10t10 25zm0-285v71q0 14-10 25t-26 11H36q-15 0-25-11T0 250v-71q0-15 11-26t25-10h785q15 0 26 10t10 26z"/></symbol>
<symbol id="pencil" viewBox="0 0 857.1 1000"><path d="M203 857l50-51-131-131-51 51v60h72v71h60zm291-518q0-12-12-12-5 0-9 4L170 633q-4 4-4 10 0 12 13 12 5 0 9-4l303-302q3-4 3-10zm-30-107l232 232-464 465H0V696zm381 54q0 29-20 50l-93 93-232-233 93-92q20-21 50-21 29 0 51 21l131 131q20 22 20 51z"/></symbol>
<symbol id="pin" viewBox="0 0 834 1000"><path d="M573 813q0 23-15 38t-37 15q-21 0-37-16L315 681 0 917l236-315L68 433q-24-23-12-56 14-32 48-32 157 0 270-57 90-45 151-171 9-24 36-32t50 13l208 209q21 23 14 50t-32 36q-127 63-172 152-56 110-56 268z"/></symbol>
<symbol id="plus" viewBox="0 0 785.7 1000"><path d="M786 411v107q0 22-16 38t-38 15H500v233q0 22-16 37t-38 16H339q-22 0-38-16t-15-37V571H54q-23 0-38-15T0 518V411q0-23 16-38t38-16h232V125q0-22 15-38t38-16h107q23 0 38 16t16 38v232h232q23 0 38 16t16 38z"/></symbol>
<symbol id="search" viewBox="0 0 928.6 1000"><path d="M643 464q0-103-73-176t-177-74-177 74-73 176 73 177 177 73 177-73 73-177zm286 465q0 29-22 50t-50 21q-30 0-50-21L616 788q-100 69-223 69-80 0-153-31t-125-84-84-125T0 464t31-152 84-126 125-84 153-31 153 31 125 84 84 126 31 152q0 123-69 223l191 191q21 21 21 51z"/></symbol>
<symbol id="settings" viewBox="0 0 1071.4 1000"><path d="M500 500q0-59-42-101t-101-42-101 42-42 101 42 101 101 42 101-42 42-101zm429 286q0-29-22-51t-50-21-50 21-21 51q0 29 21 50t50 21 51-21 21-50zm0-572q0-29-22-50t-50-21-50 21-21 50q0 30 21 51t50 21 51-21 21-51zM714 449v103q0 6-4 11t-8 6l-87 14q-6 19-18 42 19 27 50 64 4 6 4 11 0 7-4 11-12 17-46 50t-43 33q-7 0-12-4l-64-50q-21 11-43 17-6 60-13 87-4 13-17 13H305q-6 0-11-4t-5-10l-13-85q-19-6-42-18l-66 50q-4 4-11 4-6 0-12-4-80-75-80-90 0-5 4-10 5-8 23-30t26-34q-13-24-20-46l-85-13q-5-1-9-5t-4-11V447q0-5 4-10t9-6l86-14q7-19 18-42-19-27-50-64-4-6-4-11 0-7 4-12 12-16 46-49t44-33q6 0 12 4l64 50q19-10 43-18 6-60 13-86 3-13 16-13h104q6 0 11 4t6 10l13 85q19 6 42 17l65-49q5-4 12-4 6 0 11 4 81 75 81 90 0 4-4 10-7 9-24 30t-25 34q13 27 19 46l85 12q6 2 9 6t4 11zm357 298v78q0 9-83 17-6 15-16 29 28 63 28 77 0 2-2 4-68 40-69 40-5 0-26-27t-29-37q-11 1-17 1t-17-1q-7 11-29 37t-25 27q-1 0-69-40-3-2-3-4 0-14 29-77-10-14-17-29-83-8-83-17v-78q0-9 83-18 7-16 17-29-29-63-29-77 0-2 3-4 2-1 19-11t33-19 17-9q4 0 25 26t29 38q12-1 17-1t17 1q28-40 51-63l4-1q2 0 69 39 2 2 2 4 0 14-28 77 9 13 16 29 83 9 83 18zm0-572v78q0 9-83 18-6 15-16 29 28 63 28 77 0 2-2 4-68 39-69 39-5 0-26-26t-29-38q-11 1-17 1t-17-1q-7 12-29 38t-25 26q-1 0-69-39-3-2-3-4 0-14 29-77-10-14-17-29-83-9-83-18v-78q0-9 83-17 7-16 17-29-29-63-29-77 0-2 3-4 2-1 19-11t33-19 17-9q4 0 25 26t29 37q12-1 17-1t17 1q28-39 51-62l4-1q2 0 69 39 2 2 2 4 0 14-28 77 9 13 16 29 83 8 83 17z"/></symbol>
<symbol id="sitemap" viewBox="0 0 1000 1000"><path d="M1000 696v179q0 22-16 38t-38 16H768q-22 0-38-16t-16-38V696q0-22 16-38t38-15h53V536H536v107h53q23 0 38 15t16 38v179q0 22-16 38t-38 16H411q-23 0-38-16t-16-38V696q0-22 16-38t38-15h53V536H179v107h53q23 0 38 15t16 38v179q0 22-16 38t-38 16H54q-23 0-38-16T0 875V696q0-22 16-38t38-15h53V536q0-29 21-51t51-21h285V357h-53q-23 0-38-16t-16-37V125q0-22 16-38t38-16h178q23 0 38 16t16 38v179q0 22-16 37t-38 16h-53v107h285q29 0 51 21t21 51v107h53q23 0 38 15t16 38z"/></symbol>
<symbol id="sort" viewBox="0 0 571.4 1000"><path d="M571 607q0 15-10 25L311 882q-11 11-25 11t-25-11L11 632Q0 622 0 607t11-25 25-11h500q14 0 25 11t10 25zm0-214q0 14-10 25t-25 11H36q-15 0-25-11T0 393t11-25l250-250q10-11 25-11t25 11l250 250q10 10 10 25z"/></symbol>
<symbol id="spinner" viewBox="0 0 1000 1000"><path d="M294 778q0 29-21 50t-51 21q-29 0-50-21t-21-50q0-30 21-51t50-21 51 21 21 51zm277 115q0 29-20 50t-51 21-50-21-21-50 21-51 50-21 51 21 20 51zM179 500q0 30-21 50t-51 21-50-21-21-50 21-51 50-20 51 20 21 51zm670 278q0 29-21 50t-50 21q-30 0-51-21t-20-50 20-51 51-21 50 21 21 51zM311 222q0 37-26 63t-63 26-63-26-26-63 26-63 63-26 63 26 26 63zm653 278q0 30-21 50t-50 21-51-21-21-50 21-51 51-20 50 20 21 51zM607 107q0 45-31 76t-76 31-76-31-31-76 31-76 76-31 76 31 31 76zm296 115q0 52-37 88t-88 37q-52 0-88-37t-37-88q0-51 37-88t88-37q51 0 88 37t37 88z"/></symbol>
<symbol id="text" viewBox="0 0 857.1 1000"><path d="M819 212q16 16 27 42t11 50v642q0 23-15 38t-38 16H54q-23 0-38-16T0 946V54q0-23 16-38T54 0h500q22 0 49 11t42 27zM571 76v210h210q-5-17-12-23L594 88q-6-7-23-12zm215 853V357H554q-23 0-38-16t-16-37V71H71v858h715zM214 446q0-7 5-12t13-5h393q8 0 13 5t5 12v36q0 8-5 13t-13 5H232q-8 0-13-5t-5-13v-36zm411 125q8 0 13 5t5 13v36q0 8-5 13t-13 5H232q-8 0-13-5t-5-13v-36q0-8 5-13t13-5h393zm0 143q8 0 13 5t5 13v36q0 8-5 13t-13 5H232q-8 0-13-5t-5-13v-36q0-8 5-13t13-5h393z"/></symbol>
<symbol id="trash" viewBox="0 0 785.7 1000"><path d="M286 768V375q0-8-5-13t-13-5h-36q-8 0-13 5t-5 13v393q0 8 5 13t13 5h36q8 0 13-5t5-13zm143 0V375q0-8-5-13t-13-5h-36q-8 0-13 5t-5 13v393q0 8 5 13t13 5h36q8 0 13-5t5-13zm142 0V375q0-8-5-13t-12-5h-36q-8 0-13 5t-5 13v393q0 8 5 13t13 5h36q7 0 12-5t5-13zM268 214h250l-27-65q-4-5-9-6H305q-6 1-10 6zm518 18v36q0 8-5 13t-13 5h-54v529q0 46-26 80t-63 34H161q-37 0-63-33t-27-79V286H18q-8 0-13-5t-5-13v-36q0-8 5-13t13-5h172l39-93q9-21 31-35t44-15h178q23 0 44 15t30 35l39 93h173q8 0 13 5t5 13z"/></symbol>
<symbol id="up" viewBox="0 0 928 1000"><path d="M18 498L464 53l447 445-159 159-176-177v467H353V480L176 657z"/></symbol>
<symbol id="user-times" viewBox="0 0 1142.9 1000"><path d="M393 500q-89 0-152-63t-62-151 62-152 152-63 151 63 63 152-63 151-151 63zm601 179l139 138q5 5 5 13t-5 13l-76 76q-5 5-12 5-8 0-13-5L893 780 754 919q-5 5-13 5-7 0-12-5l-76-76q-5-5-5-13t5-13l139-138-139-139q-5-5-5-13t5-13l76-75q5-5 12-5 8 0 13 5l139 139 139-139q5-5 13-5 7 0 12 5l76 75q5 5 5 13t-5 13zm-278 0L615 780q-21 20-21 50t21 51l46 46q-11 2-24 2H149q-67 0-108-39T0 784q0-30 2-58t8-61 15-60 24-55 34-45 48-30 62-11q11 0 22 10 86 68 178 68t178-68q11-10 22-10 15 0 31 4-15 15-22 27t-8 32q0 30 21 51z"/></symbol>
<symbol id="user" viewBox="0 0 714.3 1000"><path d="M714 781q0 60-35 104t-84 44H119q-49 0-84-44T0 781q0-48 5-90t17-85 33-73 52-50 76-19q73 72 174 72t175-72q42 0 75 19t52 50 33 73 18 85 4 90zM571 286q0 88-62 151t-152 63-151-63-63-151 63-152 151-63 152 63 62 152z"/></symbol>
</defs></svg>
